<?xml version="1.0" encoding="UTF-8" standalone="no"?>
<!-- Created with Inkscape (http://www.inkscape.org/) -->

<svg
   xmlns:dc="http://purl.org/dc/elements/1.1/"
   xmlns:cc="http://creativecommons.org/ns#"
   xmlns:rdf="http://www.w3.org/1999/02/22-rdf-syntax-ns#"
   xmlns:svg="http://www.w3.org/2000/svg"
   xmlns="http://www.w3.org/2000/svg"
   xmlns:sodipodi="http://sodipodi.sourceforge.net/DTD/sodipodi-0.dtd"
   xmlns:inkscape="http://www.inkscape.org/namespaces/inkscape"
   width="210mm"
   height="297mm"
   viewBox="0 0 744.09448819 1052.3622047"
   id="svg2"
   version="1.1"
   inkscape:version="0.91 r13725"
   sodipodi:docname="crrr.svg">
  <defs
     id="defs4" />
  <sodipodi:namedview
     id="base"
     pagecolor="#ffffff"
     bordercolor="#666666"
     borderopacity="1.0"
     inkscape:pageopacity="0.0"
     inkscape:pageshadow="2"
     inkscape:zoom="0.50833525"
     inkscape:cx="930.98753"
     inkscape:cy="722.89356"
     inkscape:document-units="px"
     inkscape:current-layer="layer1"
     showgrid="false"
     inkscape:window-width="1829"
     inkscape:window-height="966"
     inkscape:window-x="-8"
     inkscape:window-y="-8"
     inkscape:window-maximized="1" />
  <metadata
     id="metadata7">
    <rdf:RDF>
      <cc:Work
         rdf:about="">
        <dc:format>image/svg+xml</dc:format>
        <dc:type
           rdf:resource="http://purl.org/dc/dcmitype/StillImage" />
        <dc:title></dc:title>
      </cc:Work>
    </rdf:RDF>
  </metadata>
  <g
     inkscape:label="Calque 1"
     inkscape:groupmode="layer"
     id="layer1">
    <g
       id="g4236"
       transform="matrix(0.67636527,-0.02717123,0.02717661,0.67623132,455.91809,168.96914)">
      <path
         sodipodi:nodetypes="ccc"
         inkscape:connector-curvature="0"
         id="path4136"
         d="M -630,753.79077 C -340.57634,1002.5855 362.85715,498.80899 362.85714,150.93363 22.479033,146.64792 -492.75,444.26716 -630,753.79077 Z"
         style="fill:#000000;fill-rule:evenodd;stroke:#000000;stroke-width:1.47744536px;stroke-linecap:butt;stroke-linejoin:miter;stroke-opacity:1" />
      <path
         sodipodi:nodetypes="ccc"
         inkscape:connector-curvature="0"
         id="path4140"
         d="m -497.14286,558.07649 c 147.50292,122.35909 156.43277,-10.42526 97.14286,-91.42857 -40.62304,34.59724 -71.31676,64.2298 -97.14286,91.42857 z"
         style="fill:#ffffff;fill-rule:evenodd;stroke:none;stroke-width:24.05262566;stroke-linecap:butt;stroke-linejoin:miter;stroke-opacity:1" />
      <path
         sodipodi:nodetypes="ccc"
         inkscape:connector-curvature="0"
         id="path4140-0"
         d="m -270.36519,369.9781 c 104.86913,126.34911 145.34765,4.54465 114.67324,-68.16132 -47.16454,24.95409 -83.55882,47.21727 -114.67324,68.16132 z"
         style="fill:#ffffff;fill-rule:evenodd;stroke:none;stroke-width:24.05262566;stroke-linecap:butt;stroke-linejoin:miter;stroke-opacity:1" />
      <path
         sodipodi:nodetypes="ccc"
         inkscape:connector-curvature="0"
         id="path4140-0-8"
         d="M -37.812226,242.74672 C 45.204442,384.41488 104.87951,270.77631 86.387942,194.06166 35.804007,211.04595 -3.7160148,227.11954 -37.812226,242.74672 Z"
         style="fill:#ffffff;fill-rule:evenodd;stroke:none;stroke-width:24.05262566;stroke-linecap:butt;stroke-linejoin:miter;stroke-opacity:1" />
      <path
         sodipodi:nodetypes="ccc"
         inkscape:connector-curvature="0"
         id="path4140-0-8-7"
         d="m -89.615666,716.6786 c -93.176564,-135.20267 -144.362324,-17.49602 -120.297904,57.65703 60.6071,16.33349 95.62857,-13.01598 120.297904,-57.65703 z"
         style="fill:#ffffff;fill-rule:evenodd;stroke:none;stroke-width:24.05262566;stroke-linecap:butt;stroke-linejoin:miter;stroke-opacity:1" />
      <path
         sodipodi:nodetypes="ccc"
         inkscape:connector-curvature="0"
         id="path4140-0-8-7-7"
         d="M 160.41297,535.17009 C 36.583751,427.33708 16.227327,554.06692 58.198522,620.89129 100.73436,588.67478 133.07312,560.84677 160.41297,535.17009 Z"
         style="fill:#ffffff;fill-rule:evenodd;stroke:none;stroke-width:24.05262566;stroke-linecap:butt;stroke-linejoin:miter;stroke-opacity:1" />
    </g>
    <g
       id="g4289"
       transform="matrix(0.99472761,-0.10255231,0.10255231,0.99472761,-18.685856,27.069864)">
      <path
         inkscape:connector-curvature="0"
         id="path4277"
         d="M 128.95529,146.88733 C -31.361702,179.70424 72.783171,377.05209 162.42221,265.54102"
         style="fill:none;fill-rule:evenodd;stroke:#000000;stroke-width:5.55991745;stroke-linecap:butt;stroke-linejoin:miter;stroke-opacity:1" />
      <path
         inkscape:connector-curvature="0"
         id="path4279"
         d="m 168.92659,202.78184 c -11.87002,-3.58715 30.62609,45.13138 23.30267,45.13138 -17.75287,0 -13.68143,-113.55638 37.86685,-113.55638 31.56086,0 -34.09092,57.04787 -29.12835,66.96915 12.05557,24.10177 56.88058,36.44444 78.64653,49.49894"
         style="fill:none;fill-rule:evenodd;stroke:#000000;stroke-width:5.55991745;stroke-linecap:butt;stroke-linejoin:miter;stroke-opacity:1" />
      <path
         inkscape:connector-curvature="0"
         id="path4281"
         d="m 252.07341,171.06597 c 46.29876,104.72365 -12.7104,-85.876216 61.16951,-43.67553 28.83918,16.47312 -23.83527,39.16665 -20.38984,49.49894 5.65876,16.96966 68.27592,78.74071 72.82086,37.85212"
         style="fill:none;fill-rule:evenodd;stroke:#000000;stroke-width:5.55991745;stroke-linecap:butt;stroke-linejoin:miter;stroke-opacity:1" />
      <path
         inkscape:connector-curvature="0"
         id="path4283"
         d="m 363.70673,116.02034 c 3.09733,16.83712 5.82567,33.79299 5.82567,50.95479 0,2.47447 -1.32631,-4.8082 -1.45642,-7.27926 -1.00814,-19.14718 4.2788,-70.858943 33.49759,-68.42499 39.04614,3.25258 -5.77015,32.1397 -2.91283,37.85212 10.67031,21.33233 43.45122,52.86614 65.53877,61.14575"
         style="fill:none;fill-rule:evenodd;stroke:#000000;stroke-width:5.55991745;stroke-linecap:butt;stroke-linejoin:miter;stroke-opacity:1" />
    </g>
  </g>
</svg>
